<svg version="1.1" id="Layer_1" xmlns="http://www.w3.org/2000/svg" xmlns:xlink="http://www.w3.org/1999/xlink" x="0px" y="0px" viewBox="0 0 100 100" xml:space="preserve"><desc>Copyright Opto 22</desc> 
	 <g>
<g id="shape">

			<rect x="91.52" y="25.76" fill="#999999" width="8.48" height="21.352"></rect>

		<path fill="#999999" d="M90.414,26.681l1.844-8.296h-1.844h-2.212h-3.068c-0.599-3.373-3.539-5.937-7.085-5.937H59.703
			c-3.546,0-6.486,2.564-7.085,5.937H41.931c-0.599-3.373-3.539-5.937-7.085-5.937H16.501c-3.544,0-6.484,2.564-7.083,5.937H5.244
			H3.031H1.188l1.844,8.296v66.182H1.188V99.5h91.069v-6.637h-1.844V26.681z M5.244,41.526l1.035-0.23l0.883,3.974l-1.919,0.426
			V41.526z M55.632,84.752v8.111H37.321v-8.111H55.632z M88.202,45.61l-1.9-0.422l0.883-3.974l1.017,0.226V45.61z M71.241,84.752
			h6.268l0.472-2.126l2.236,0.497l0.65-2.928l-2.235-0.497l0.883-3.975l2.272,0.505l0.65-2.928l-2.271-0.505l0.883-3.974
			l2.308,0.513l0.65-2.928L81.7,65.894l0.883-3.975l2.344,0.521l0.65-2.928l-2.344-0.521l0.883-3.974l2.38,0.529l0.65-2.928
			l-2.38-0.529l0.883-3.975l2.416,0.537l0.135-0.608v44.819h-16.96V84.752z M88.202,38.368l-0.367-0.081l0.367-1.65V38.368z
			 M61.263,14.317H76.49c3.122,0,5.682,1.789,5.951,4.069h-27.13C55.581,16.105,58.14,14.317,61.263,14.317z M18.06,14.317h15.227
			c3.122,0,5.682,1.789,5.951,4.069H12.11C12.379,16.105,14.939,14.317,18.06,14.317z M5.629,38.368l-0.385,0.086v-1.818
			L5.629,38.368z M5.244,46.305l0.521,2.347l2.048-0.455l0.883,3.975l-2.011,0.447l0.65,2.928L9.347,55.1l0.883,3.974l-1.975,0.439
			l0.65,2.928l1.976-0.439l0.883,3.975l-1.939,0.431l0.65,2.928l1.939-0.431l0.883,3.974l-1.903,0.423l0.65,2.928l1.903-0.423
			l0.883,3.975l-1.867,0.415l0.65,2.928l1.867-0.415l0.454,2.044h5.775v8.111H5.244V46.305z"></path>

</g>
<g id="dark">
	<rect x="21.711" y="84.752" fill="#808080" width="15.609" height="8.111"></rect>
	<rect x="55.632" y="84.752" fill="#808080" width="15.609" height="8.111"></rect>
</g>
<g id="shadow">

			<rect x="5.095" y="46.061" transform="matrix(-0.2169 -0.9762 0.9762 -0.2169 -37.8445 63.6149)" fill="#4D4D4D" width="2.999" height="1.854"></rect>
		
			<rect x="6.647" y="52.978" transform="matrix(-0.2169 -0.9762 0.9762 -0.2169 -42.6905 73.5244)" fill="#4D4D4D" width="2.999" height="1.817"></rect>
		
			<rect x="8.199" y="59.894" transform="matrix(-0.2169 -0.9762 0.9762 -0.2169 -47.5356 83.4326)" fill="#4D4D4D" width="2.999" height="1.78"></rect>
		
			<rect x="9.751" y="66.811" transform="matrix(-0.2169 -0.9762 0.9762 -0.2169 -52.3813 93.3424)" fill="#4D4D4D" width="2.999" height="1.742"></rect>
		
			<rect x="11.303" y="73.727" transform="matrix(-0.2169 -0.9762 0.9762 -0.2169 -57.2264 103.2506)" fill="#4D4D4D" width="2.999" height="1.705"></rect>
		
			<rect x="12.854" y="80.644" transform="matrix(-0.2169 -0.9762 0.9762 -0.2169 -62.0724 113.1601)" fill="#4D4D4D" width="2.999" height="1.669"></rect>

	<polygon fill="#4D4D4D" points="98.656,47.612 91.52,47.612 91.52,46.612 97.656,46.612 97.656,25.76 98.656,25.76 	"></polygon>

			<rect x="84.132" y="52.6" transform="matrix(-0.2169 0.9762 -0.9762 -0.2169 156.7401 -18.1044)" fill="#4D4D4D" width="2.999" height="2.438"></rect>
		
			<rect x="82.581" y="59.516" transform="matrix(-0.2169 0.9762 -0.9762 -0.2169 161.5852 -8.1961)" fill="#4D4D4D" width="2.999" height="2.401"></rect>
		
			<rect x="81.029" y="66.433" transform="matrix(-0.2169 0.9762 -0.9762 -0.2169 166.4312 1.7133)" fill="#4D4D4D" width="2.999" height="2.364"></rect>
		
			<rect x="79.477" y="73.349" transform="matrix(-0.2169 0.9762 -0.9762 -0.2169 171.2764 11.6216)" fill="#4D4D4D" width="2.999" height="2.327"></rect>
		
			<rect x="77.925" y="80.266" transform="matrix(-0.2169 0.9762 -0.9762 -0.2169 176.1223 21.531)" fill="#4D4D4D" width="2.999" height="2.29"></rect>

		<polygon fill="#4D4D4D" points="87.835,38.286 87.184,41.214 88.202,41.44 88.202,38.368 		"></polygon>
		<polygon fill="#4D4D4D" points="85.651,48.115 88.066,48.652 88.202,48.044 88.202,45.61 86.301,45.188 		"></polygon>

		<polygon fill="#4D4D4D" points="5.64,38.421 5.244,38.509 5.244,41.582 6.291,41.349 		"></polygon>

</g>
<g id="light">
	<path fill="#CCCCCC" d="M55.312,18.386c0.269-2.28,2.829-4.069,5.951-4.069H76.49c3.122,0,5.682,1.789,5.951,4.069h2.693
		c-0.599-3.373-3.539-5.937-7.085-5.937H59.703c-3.546,0-6.486,2.564-7.085,5.937H55.312z"></path>
	<path fill="#CCCCCC" d="M12.11,18.386c0.269-2.28,2.829-4.069,5.95-4.069h15.227c3.122,0,5.682,1.789,5.951,4.069h2.693
		c-0.599-3.373-3.539-5.937-7.085-5.937H16.501c-3.544,0-6.484,2.564-7.083,5.937H12.11z"></path>
	<path fill="#CCCCCC" d="M67.263,14.317c-3.122,0-5.682,1.789-5.951,4.069h-2.5c0.269-2.28,2.829-4.069,5.951-4.069"></path>
	<path fill="#CCCCCC" d="M24.06,14.317c-3.121,0-5.681,1.789-5.95,4.069h-2.5c0.269-2.28,2.829-4.069,5.95-4.069"></path>
	<path fill="#CCCCCC" d="M30.11,14.317c3.122,0,5.682,1.789,5.951,4.069h-2.5c-0.269-2.28-2.829-4.069-5.951-4.069"></path>
	<path fill="#CCCCCC" d="M73.313,14.317c3.121,0,5.681,1.789,5.95,4.069h-2.5c-0.269-2.28-2.829-4.069-5.95-4.069"></path>
	<rect x="24.81" y="13.817" fill="#CCCCCC" width="2.19" height="4.433"></rect>
	<rect x="67.905" y="13.817" fill="#CCCCCC" width="2.19" height="4.433"></rect>
</g>
<g id="hlight">
	<path fill="#E6E6E6" d="M9.909,18.474l-0.984-0.176c0.653-3.679,3.839-6.35,7.576-6.35h18.346v1H16.5
		C13.25,12.948,10.478,15.271,9.909,18.474z"></path>
	<path fill="#E6E6E6" d="M53.111,18.474l-0.984-0.176c0.653-3.679,3.84-6.35,7.577-6.35h18.346v1H59.704
		C56.452,12.948,53.679,15.271,53.111,18.474z"></path>
</g>
</g>
</svg>