<svg version="1.1" id="Layer_1" xmlns="http://www.w3.org/2000/svg" xmlns:xlink="http://www.w3.org/1999/xlink" x="0px" y="0px" viewBox="0 0 100 100" xml:space="preserve"><desc>Copyright Opto 22</desc> 
<g>
<g id="shape">
	<ellipse fill="#808080" cx="53.096" cy="9.86" rx="1.818" ry="1.883"></ellipse>
	<ellipse fill="#808080" cx="54.998" cy="19.365" rx="2.364" ry="2.448"></ellipse>
	<path fill="#808080" d="M61.431,84.625h0.72l2.448-7.345c0,0-0.672-0.288-2.208-0.288c-1.051,0-1.584,0.135-1.817,0.22
		l-2.383-31.318c0.115,0.182,0.245,0.287,0.383,0.287h1.323c0.47,0,0.851-1.185,0.851-2.646c0-1.461-0.381-2.646-0.851-2.646h-1.323
		c-0.28,0-0.528,0.423-0.683,1.073l-2.2-28.912h0.41v-0.576h-0.454l-0.285-3.744h1.027l1.728-4.753c0,0-2.592-0.576-3.6-0.144
		l-0.432,2.88l0.686,1.922l0.226,3.839h-3.679l0.186-4.311h-0.433l-0.254,4.311h-0.477v0.576h0.443l-1.73,29.408
		c-0.133-0.924-0.43-1.569-0.776-1.569h-1.323c-0.47,0-0.851,1.185-0.851,2.646c0,1.461,0.381,2.646,0.851,2.646h1.323
		c0.236,0,0.449-0.299,0.603-0.782l-1.859,31.603c-0.948,0.049-1.865,0.278-1.865,0.278l1.422,7.254l-0.908,14.857l0.519,0.239
		l4.378-80.812l-3.726,81.113l0.702,0.324l0.734-17.263h10.902l0.964,16.255l0.558,0.186l-4.59-80.615l5.377,80.877l0.815,0.272
		l-1.532-20.132L61.431,84.625z M58.119,3.976c0,0-2.592-0.576-3.6-0.144l-0.432,2.88 M51.294,13.049h3.738l0.833,14.042h-5.177
		L51.294,13.049z M59.155,82.561H48.297l0.076-1.779l0.961-3.502c0,0-0.322-0.101-0.802-0.183l0.566-13.114h8.956L59.155,82.561z
		 M58.028,63.551h-8.912l0.781-18.098h7.058L58.028,63.551z M56.929,45.021h-7.013l0.755-17.497h5.221L56.929,45.021z"></path>
	<path fill="#808080" d="M52.358,4.264c0,0-2.592-0.576-3.6-0.144l-0.864,2.88l0.72,2.016h1.584L52.358,4.264z"></path>
	<ellipse fill="#808080" cx="56.803" cy="9.604" rx="1.356" ry="1.404"></ellipse>
</g>
<g id="dark">
	<rect x="53.042" y="63.887" fill="#808080" width="2.448" height="1.728"></rect>
	<path fill="#808080" d="M53.654,36.559l-3.199-4.652l3.199-4.652l3.199,4.652L53.654,36.559z M50.805,31.908l2.85,4.144l2.85-4.144
		l-2.85-4.143L50.805,31.908z"></path>
	<path fill="#808080" d="M53.654,45.179l-3.706-4.628l3.706-4.628l3.706,4.628L53.654,45.179z M50.317,40.551l3.337,4.167
		l3.337-4.167l-3.337-4.167L50.317,40.551z"></path>
	<path fill="#808080" d="M53.51,20.373l-2.444-3.426l2.444-3.426l2.444,3.426L53.51,20.373z M51.42,16.948l2.09,2.93l2.09-2.93
		l-2.09-2.93L51.42,16.948z"></path>
	<path fill="#808080" d="M53.51,27.411l-2.731-3.829l2.731-3.828l2.731,3.828L53.51,27.411z M51.133,23.582l2.378,3.333l2.378-3.333
		L53.51,20.25L51.133,23.582z"></path>
	<path fill="#808080" d="M53.87,53.865l-4.344-4.307l4.344-4.307l4.344,4.307L53.87,53.865z M49.935,49.557l3.935,3.902l3.935-3.902
		l-3.935-3.902L49.935,49.557z"></path>
	<path fill="#808080" d="M53.87,62.935l-4.816-4.652l4.816-4.652l4.816,4.652L53.87,62.935z M49.469,58.283l4.401,4.252l4.401-4.252
		l-4.401-4.252L49.469,58.283z"></path>
	<path fill="#808080" d="M54.23,73.123l-5.409-4.859l5.409-4.859l5.409,4.859L54.23,73.123z M49.252,68.264l4.978,4.472l4.978-4.472
		l-4.978-4.472L49.252,68.264z"></path>
	<path fill="#808080" d="M54.23,82.798l-6.004-5.113l6.004-5.113l6.004,5.113L54.23,82.798z M48.671,77.685l5.56,4.735l5.56-4.735
		l-5.56-4.734L48.671,77.685z"></path>
	<ellipse fill="#808080" cx="53.269" cy="61.526" rx="2.187" ry="2.265"></ellipse>
	<rect x="53.342" y="12.761" fill="#808080" width="0.144" height="86.957"></rect>
	<rect x="49.082" y="65.615" fill="#808080" width="9.181" height="0.288"></rect>
	<path fill="#808080" d="M54.525,91.547l-6.452-4.557l6.452-4.557l6.452,4.557L54.525,91.547z M48.572,86.99l5.953,4.205
		l5.953-4.205l-5.953-4.205L48.572,86.99z"></path>
	<path fill="#808080" d="M54.525,100.35l-7.169-4.653l7.169-4.653l7.169,4.653L54.525,100.35z M47.885,95.698l6.64,4.309l6.64-4.309
		l-6.64-4.31L47.885,95.698z"></path>
	<rect x="48.061" y="84.604" fill="#808080" width="13.55" height="0.288"></rect>
	<rect x="49.298" y="46.785" fill="#808080" width="8.749" height="0.288"></rect>
	<rect x="50.378" y="28.927" fill="#808080" width="6.229" height="0.288"></rect>
	<rect x="50.738" y="13.769" fill="#808080" width="5.149" height="0.288"></rect>
	<rect x="49.094" y="10.889" fill="#808080" width="8.437" height="0.288"></rect>
	<circle fill="#808080" cx="54.044" cy="63.67" r="1.747"></circle>
	<g>
		<rect x="58.731" y="98.451" fill="#808080" width="1.764" height="0.288"></rect>
		<rect x="58.676" y="97.4" fill="#808080" width="1.756" height="0.288"></rect>
		<rect x="58.622" y="96.35" fill="#808080" width="1.748" height="0.288"></rect>
		<rect x="58.568" y="95.3" fill="#808080" width="1.74" height="0.288"></rect>
		<rect x="58.514" y="94.249" fill="#808080" width="1.732" height="0.288"></rect>
		<rect x="58.46" y="93.199" fill="#808080" width="1.724" height="0.288"></rect>
		<rect x="58.405" y="92.149" fill="#808080" width="1.716" height="0.288"></rect>
		<rect x="58.351" y="91.098" fill="#808080" width="1.708" height="0.288"></rect>
		<rect x="58.297" y="90.048" fill="#808080" width="1.7" height="0.288"></rect>
		<rect x="58.243" y="88.998" fill="#808080" width="1.692" height="0.288"></rect>
		<rect x="58.188" y="87.947" fill="#808080" width="1.684" height="0.288"></rect>
		<rect x="58.134" y="86.897" fill="#808080" width="1.676" height="0.288"></rect>
		<rect x="58.08" y="85.847" fill="#808080" width="1.668" height="0.288"></rect>
		<rect x="58.026" y="84.796" fill="#808080" width="1.66" height="0.288"></rect>
		<rect x="57.972" y="83.746" fill="#808080" width="1.652" height="0.288"></rect>
		<rect x="57.917" y="82.696" fill="#808080" width="1.644" height="0.288"></rect>
		<rect x="57.863" y="81.645" fill="#808080" width="1.636" height="0.288"></rect>
		<rect x="57.809" y="80.595" fill="#808080" width="1.628" height="0.288"></rect>
		<rect x="57.755" y="79.545" fill="#808080" width="1.62" height="0.288"></rect>
		<rect x="57.7" y="78.494" fill="#808080" width="1.612" height="0.288"></rect>
		<rect x="57.646" y="77.444" fill="#808080" width="1.604" height="0.288"></rect>
		<rect x="57.592" y="76.394" fill="#808080" width="1.596" height="0.288"></rect>
		<rect x="57.538" y="75.343" fill="#808080" width="1.588" height="0.288"></rect>
		<rect x="57.483" y="74.293" fill="#808080" width="1.58" height="0.288"></rect>
		<rect x="57.429" y="73.243" fill="#808080" width="1.572" height="0.288"></rect>
		<rect x="57.375" y="72.192" fill="#808080" width="1.564" height="0.288"></rect>
		<rect x="57.321" y="71.142" fill="#808080" width="1.556" height="0.288"></rect>
		<rect x="57.267" y="70.092" fill="#808080" width="1.548" height="0.288"></rect>
		<rect x="57.212" y="69.041" fill="#808080" width="1.54" height="0.288"></rect>
		<rect x="57.158" y="67.991" fill="#808080" width="1.532" height="0.288"></rect>
		<rect x="57.104" y="66.941" fill="#808080" width="1.524" height="0.288"></rect>
		<rect x="57.05" y="65.89" fill="#808080" width="1.516" height="0.288"></rect>
		<rect x="56.995" y="64.84" fill="#808080" width="1.508" height="0.288"></rect>
		<rect x="56.941" y="63.789" fill="#808080" width="1.5" height="0.288"></rect>
		<rect x="56.887" y="62.739" fill="#808080" width="1.492" height="0.288"></rect>
		<rect x="56.833" y="61.689" fill="#808080" width="1.484" height="0.288"></rect>
		<rect x="56.778" y="60.638" fill="#808080" width="1.476" height="0.288"></rect>
		<rect x="56.724" y="59.588" fill="#808080" width="1.468" height="0.288"></rect>
		<rect x="56.67" y="58.538" fill="#808080" width="1.46" height="0.288"></rect>
		<rect x="56.616" y="57.487" fill="#808080" width="1.452" height="0.288"></rect>
		<rect x="56.562" y="56.437" fill="#808080" width="1.444" height="0.288"></rect>
		<rect x="56.507" y="55.387" fill="#808080" width="1.436" height="0.288"></rect>
		<rect x="56.453" y="54.336" fill="#808080" width="1.428" height="0.288"></rect>
		<rect x="56.399" y="53.286" fill="#808080" width="1.42" height="0.288"></rect>
		<rect x="56.345" y="52.236" fill="#808080" width="1.412" height="0.288"></rect>
		<rect x="56.29" y="51.185" fill="#808080" width="1.404" height="0.288"></rect>
		<rect x="56.236" y="50.135" fill="#808080" width="1.396" height="0.288"></rect>
		<rect x="56.182" y="49.085" fill="#808080" width="1.388" height="0.288"></rect>
		<rect x="56.128" y="48.034" fill="#808080" width="1.38" height="0.288"></rect>
		<rect x="56.074" y="46.984" fill="#808080" width="1.372" height="0.288"></rect>
		<rect x="56.019" y="45.934" fill="#808080" width="1.364" height="0.288"></rect>
		<rect x="55.965" y="44.883" fill="#808080" width="1.356" height="0.288"></rect>
		<rect x="55.911" y="43.833" fill="#808080" width="1.348" height="0.288"></rect>
		<rect x="55.857" y="42.783" fill="#808080" width="1.34" height="0.288"></rect>
		<rect x="55.802" y="41.732" fill="#808080" width="1.332" height="0.288"></rect>
		<rect x="55.748" y="40.682" fill="#808080" width="1.324" height="0.288"></rect>
		<rect x="55.694" y="39.632" fill="#808080" width="1.316" height="0.288"></rect>
		<rect x="55.64" y="38.581" fill="#808080" width="1.308" height="0.288"></rect>
		<rect x="55.585" y="37.531" fill="#808080" width="1.3" height="0.288"></rect>
		<rect x="55.531" y="36.481" fill="#808080" width="1.292" height="0.288"></rect>
		<rect x="55.477" y="35.43" fill="#808080" width="1.284" height="0.288"></rect>
		<rect x="55.423" y="34.38" fill="#808080" width="1.276" height="0.288"></rect>
		<rect x="55.369" y="33.33" fill="#808080" width="1.268" height="0.288"></rect>
		<rect x="55.314" y="32.279" fill="#808080" width="1.26" height="0.288"></rect>
		<rect x="55.26" y="31.229" fill="#808080" width="1.252" height="0.288"></rect>
		<rect x="55.206" y="30.179" fill="#808080" width="1.244" height="0.288"></rect>
		<rect x="55.152" y="29.128" fill="#808080" width="1.236" height="0.288"></rect>
		<rect x="55.097" y="28.078" fill="#808080" width="1.228" height="0.288"></rect>
		<rect x="55.043" y="27.028" fill="#808080" width="1.22" height="0.288"></rect>
		<rect x="54.989" y="25.977" fill="#808080" width="1.212" height="0.288"></rect>
		<rect x="54.935" y="24.927" fill="#808080" width="1.204" height="0.288"></rect>
		<rect x="54.881" y="23.877" fill="#808080" width="1.196" height="0.288"></rect>
		<rect x="54.826" y="22.826" fill="#808080" width="1.188" height="0.288"></rect>
		<rect x="54.772" y="21.776" fill="#808080" width="1.18" height="0.288"></rect>
		<rect x="54.718" y="20.726" fill="#808080" width="1.172" height="0.288"></rect>
		<rect x="54.664" y="19.675" fill="#808080" width="1.164" height="0.288"></rect>
		<rect x="54.609" y="18.625" fill="#808080" width="1.156" height="0.288"></rect>
		<rect x="54.555" y="17.575" fill="#808080" width="1.148" height="0.288"></rect>
		<rect x="54.501" y="16.524" fill="#808080" width="1.14" height="0.288"></rect>
		<rect x="54.447" y="15.474" fill="#808080" width="1.132" height="0.288"></rect>
		<rect x="54.392" y="14.424" fill="#808080" width="1.124" height="0.288"></rect>
		<rect x="54.338" y="13.373" fill="#808080" width="1.116" height="0.288"></rect>
	</g>
	
		<rect x="13.814" y="55.48" transform="matrix(0.0536 0.9986 -0.9986 0.0536 109.5138 -4.302)" fill="#808080" width="86.426" height="0.288"></rect>
	<path fill="#808080" d="M50.212,39.87l0.366-7.44l2.642,3.74L50.212,39.87z M50.825,33.278l-0.282,5.728l2.316-2.848L50.825,33.278
		z"></path>
	<path fill="#808080" d="M49.674,49.252l0.42-8.257l3.427,4.291L49.674,49.252z M50.344,41.768l-0.343,6.734l3.137-3.235
		L50.344,41.768z"></path>
	<path fill="#808080" d="M49.416,57.665l0.3-7.6l3.773,3.685L49.416,57.665z M49.978,50.723l-0.246,6.238l3.343-3.214L49.978,50.723
		z"></path>
	<path fill="#808080" d="M49.021,67.833l0.39-9.015l4.512,4.545L49.021,67.833z M49.67,59.488l-0.331,7.665l4.168-3.8L49.67,59.488z
		"></path>
	<path fill="#808080" d="M48.602,77.155l0.351-8.512l4.63,4.236L48.602,77.155z M49.215,69.273l-0.298,7.232l4.232-3.633
		L49.215,69.273z"></path>
	<path fill="#808080" d="M48.206,86.782l0.387-8.57l5.295,4.478L48.206,86.782z M48.855,78.81l-0.334,7.39l4.9-3.529L48.855,78.81z"></path>
	<path fill="#808080" d="M47.846,95.249l0.387-7.982l5.714,4.048L47.846,95.249z M48.495,87.805l-0.334,6.898l5.272-3.399
		L48.495,87.805z"></path>
	<path fill="#808080" d="M54.233,100.33l-6.525-0.253l0.201-3.944L54.233,100.33z M48.011,99.8l5.208,0.202l-5.048-3.35L48.011,99.8
		z"></path>
	<rect x="50.773" y="7.802" fill="#808080" width="4.29" height="0.432"></rect>
	<rect x="51.83" y="0.808" fill="#808080" width="0.288" height="7.105"></rect>
	<path fill="#999999" d="M57.567,45.633h-2.928v-2.448h2.928V45.633z M54.926,45.345h2.352v-1.872h-2.352V45.345z"></path>
	<path fill="#999999" d="M52.958,45.633H50.03v-2.448h2.928V45.633z M50.318,45.345h2.352v-1.872h-2.352V45.345z"></path>
	<path fill="#999999" d="M57.759,68.183H53.39v-2.448h4.368V68.183z M53.678,67.895h3.792v-1.872h-3.792V67.895z"></path>
	<path fill="#999999" d="M59.451,82.789h-2.736v-2.448h2.736V82.789z M57.003,82.501h2.16v-1.872h-2.16V82.501z"></path>
	<path fill="#999999" d="M51.194,82.789h-2.736v-2.448h2.736V82.789z M48.746,82.501h2.16v-1.872h-2.16V82.501z"></path>
	<path fill="#999999" d="M56.102,27.019h-2.736v-2.448h2.736V27.019z M53.654,26.731h2.16v-1.872h-2.16V26.731z"></path>
	<path fill="#999999" d="M58.514,63.935h-2.736v-2.448h2.736V63.935z M56.066,63.647h2.16v-1.872h-2.16V63.647z"></path>
	<rect x="44.581" y="82.561" fill="#999999" width="2.976" height="0.288"></rect>
	<rect x="61.095" y="82.561" fill="#999999" width="2.976" height="0.288"></rect>
	<polygon fill="#999999" points="49.422,86.977 46.299,86.977 45.02,82.843 45.295,82.758 46.512,86.689 49.029,86.689 
		48.332,84.489 48.607,84.402 	"></polygon>
	<polygon fill="#999999" points="62.293,86.977 59.17,86.977 59.986,84.402 60.26,84.489 59.563,86.689 62.081,86.689 
		63.298,82.758 63.573,82.843 	"></polygon>
	<rect x="51.037" y="20.115" fill="#999999" width="4.932" height="0.288"></rect>
	<rect x="50.281" y="36.173" fill="#999999" width="6.084" height="0.288"></rect>
	<rect x="49.453" y="53.743" fill="#999999" width="7.993" height="0.288"></rect>
	<rect x="48.47" y="72.753" fill="#999999" width="10.225" height="0.288"></rect>
	<rect x="47.461" y="91.079" fill="#999999" width="13.537" height="0.288"></rect>
	<rect x="60.687" y="81.601" fill="#999999" width="2.976" height="0.288"></rect>
	<rect x="45.253" y="81.601" fill="#999999" width="2.976" height="0.288"></rect>
</g>
<g id="light">
	<path fill="#CCCCCC" d="M46.955,40.888c-0.47,0-0.851,1.185-0.851,2.646c0,1.461,0.381,2.646,0.851,2.646h1.323
		c0.47,0,0.851-1.185,0.851-2.646c0-1.461-0.381-2.646-0.851-2.646H46.955z"></path>
	<path fill="#CCCCCC" d="M62.151,84.625h-0.72l-1.008-7.345c0,0,0.432-0.288,1.968-0.288c1.536,0,2.208,0.288,2.208,0.288
		L62.151,84.625z"></path>
	<path fill="#CCCCCC" d="M47.317,84.625h-0.72l-1.44-7.345c0,0,1.152-0.288,2.208-0.288s1.968,0.288,1.968,0.288L47.317,84.625z"></path>
</g>
<g id="shadow">
	<path fill="#999999" d="M45.637,77.616l0.288,1.44h2.688l0.324-1.416c0,0-0.804-0.312-1.86-0.312S45.637,77.616,45.637,77.616z"></path>
	<path fill="#999999" d="M60.807,77.616l0.216,1.44h2.724l0.396-1.416c0,0-0.84-0.312-1.896-0.312
		C61.191,77.328,60.807,77.616,60.807,77.616z"></path>
</g>
<g id="hlight">
	<path fill="#CCCCCC" d="M54.086,6.713l0.432-2.88c1.008-0.432,3.6,0.144,3.6,0.144l-2.112,2.976
		C56.006,6.953,55.142,6.569,54.086,6.713z"></path>
	<path fill="#CCCCCC" d="M47.894,7.001l0.864-2.88c1.008-0.432,3.6,0.144,3.6,0.144l-2.112,2.976
		C50.246,7.241,48.95,6.857,47.894,7.001z"></path>
	<ellipse fill="#E6E6E6" cx="46.752" cy="43.534" rx="0.851" ry="2.646"></ellipse>
	<ellipse fill="#CCCCCC" cx="54.566" cy="61.487" rx="2.364" ry="2.448"></ellipse>
</g>
</g>
</svg>