<svg version="1.1" id="Layer_1" xmlns="http://www.w3.org/2000/svg" xmlns:xlink="http://www.w3.org/1999/xlink" x="0px" y="0px" viewBox="0 0 100 100" xml:space="preserve"><desc>Copyright Opto 22</desc> 
	 <g>
<g id="shape">
	<path fill="#999999" d="M74.865,97.035V60.186l-1.797-1.284V18.843h-5.091v-3.272c1.74-0.62,2.994-2.265,2.994-4.218
		c0-2.482-2.013-4.494-4.494-4.494c-1.954,0-3.599,1.254-4.218,2.994h-8.641c-0.62-1.74-2.264-2.994-4.217-2.994
		c-2.483,0-4.494,2.013-4.494,4.494c0,1.953,1.253,3.599,2.994,4.218v3.272h-7.039v-2.396h2.247V0.868h-14.38v15.579h2.547v2.396
		h-4.344v40.059l-1.798,1.284v36.849h-2.396v2.097h2.396h4.195h41.342h4.194h2.397v-2.097H74.865z M70.671,85.996H56.946v-1.021
		h-1.276v1.021h-1.622v-0.85c0-2.05-0.32-3.868-0.806-4.951h0.207v-2.633h17.223V85.996z M50.901,15.571
		c1.269-0.452,2.266-1.449,2.717-2.718h8.64c0.452,1.269,1.449,2.266,2.719,2.718v3.272H50.901V15.571z M44.907,97.035v-3.511h0.302
		v-1.786h0.446v-8.676h-0.446V81.34h-2.553v1.722h-6.888V81.34h-2.553v1.722h-0.639v-0.383c0,0-0.488,0-1.084,0
		c-0.596,0-1.084,1.8-1.084,4v1.441c0,2.2,0.488,4,1.084,4c0.341,0,0.633,0,0.833,0v4.915h-2.995V77.562h21.57v2.633h0.268
		c-0.486,1.083-0.806,2.901-0.806,4.951v0.149c-0.103,0-0.211,0-0.326,0c-0.516,0-0.939,0.838-0.989,1.898
		c-0.05-1.06-0.473-1.898-0.989-1.898c-0.135,0-0.264,0-0.382,0c-0.164-1.323-0.502-2.247-0.894-2.247c-0.55,0-1,0-1,0v8.705
		c0,0,0.45,0,1,0c0.392,0,0.73-0.924,0.894-2.247c0.118,0,0.247,0,0.382,0c0.516,0,0.939-0.838,0.989-1.898
		c0.05,1.06,0.473,1.898,0.989,1.898c0.115,0,0.223,0,0.326,0v0.148c0,3.3,0.829,6,1.843,6s1.843-2.7,1.843-6v-0.849h1.622v1.021
		h1.276v-1.477h13.725v8.688H44.907z"></path>
</g>
<g id="dark">

		<path fill="#808080" d="M45.208,81.34h-2.553v1.722h-6.888V81.34h-2.553v1.722h-0.639v-0.383c0,0-0.488,0-1.084,0
			c-0.596,0-1.084,1.8-1.084,4v1.441c0,2.2,0.488,4,1.084,4c0.596,0,1.084,0,1.084,0v-0.382h0.639v1.786h2.553v-1.786h6.888v1.786
			h2.553v-1.786h0.446v-8.676h-0.446V81.34z"></path>
		<path fill="#808080" d="M71.869,85.996H56.946v-1.021h-1.276v1.021h-1.622v-0.85c0-2.05-0.32-3.868-0.806-4.951h0.207v-2.633
			h-2.549v2.633h0.268c-0.486,1.083-0.806,2.901-0.806,4.951v0.149c-0.103,0-0.211,0-0.326,0c-0.516,0-0.939,0.838-0.989,1.898
			c-0.05-1.06-0.473-1.898-0.989-1.898c-0.135,0-0.264,0-0.382,0c-0.164-1.323-0.502-2.247-0.894-2.247c-0.55,0-1,0-1,0v8.705
			c0,0,0.45,0,1,0c0.392,0,0.73-0.924,0.894-2.247c0.118,0,0.247,0,0.382,0c0.516,0,0.939-0.838,0.989-1.898
			c0.05,1.06,0.473,1.898,0.989,1.898c0.115,0,0.223,0,0.326,0v0.148c0,3.3,0.829,6,1.843,6s1.843-2.7,1.843-6v-0.849h1.622v1.021
			h1.276v-1.477h14.923V85.996z"></path>

</g>
<g id="shadow">
	<rect x="31.276" y="16.447" fill="#4D4D4D" width="9.586" height="2.396"></rect>
	<path fill="#4D4D4D" d="M44.907,93.524h-2.251v-1.786h-6.888v1.786h-2.553v-1.786h-0.639v0.382c0,0-0.102,0-0.252,0v4.915h12.583
		V93.524z"></path>
</g>
<g id="hlight">
	<rect x="32.449" y="83.839" fill="#CCCCCC" width="13.27" height="1"></rect>
	<rect x="32.449" y="89.261" fill="#CCCCCC" width="13.27" height="1"></rect>
	<rect x="32.449" y="90.472" fill="#CCCCCC" width="13.27" height="1"></rect>
	
		<rect x="66.175" y="7.408" transform="matrix(0.8423 0.539 -0.539 0.8423 15.8619 -34.9569)" fill="#B3B3B3" width="3" height="4.445"></rect>
	
		<rect x="48.65" y="7.408" transform="matrix(0.8422 0.5391 -0.5391 0.8422 13.1046 -25.5174)" fill="#B3B3B3" width="3" height="4.446"></rect>
</g>
</g>
</svg>