<svg version="1.1" id="Layer_1" xmlns="http://www.w3.org/2000/svg" xmlns:xlink="http://www.w3.org/1999/xlink" x="0px" y="0px" viewBox="0 0 100 100" xml:space="preserve"><desc>Copyright Opto 22</desc> 
<g>
	<g id="shape">
		<rect x="1" y="28.164" fill="#E6E6E6" width="98" height="43.173"></rect>
	</g>
	<g id="shadow">
		<rect x="5.092" y="32.392" fill="#1A1A1A" width="89.816" height="34.716"></rect>
		<polygon opacity="0.5" fill="#1A1A1A" enable-background="new    " points="94.908,67.108 5.092,67.108 1,71.336 99,71.336 		"></polygon>
	</g>
	<g id="dark">
		<polygon fill="#999999" points="79.564,29.8 79.564,63.311 48.875,65.335 48.875,33.688 		"></polygon>
		<polygon fill="#999999" points="79.564,63.311 91.839,65.335 91.839,33.688 79.564,29.8 		"></polygon>
	</g>
	<g id="light">
		<rect x="7.956" y="33.688" fill="#F2F2F2" stroke="#000000" stroke-miterlimit="10" width="40.919" height="31.647"></rect>
	</g>
	<g id="hlight">
		<path fill="#FFFFFF" d="M79.473,62.811h-1V30.867L49.146,34.59l-0.126-0.992l29.89-3.794c0.143-0.015,0.285,0.027,0.393,0.121
			c0.108,0.095,0.17,0.231,0.17,0.375V62.811z"></path>
		
			<rect x="63.675" y="48.692" transform="matrix(0.0646 0.9979 -0.9979 0.0646 123.4348 -4.137)" fill="#FFFFFF" width="0.499" height="30.159"></rect>
		<rect x="46.374" y="36.961" fill="#FFFFFF" width="0.5" height="24.282"></rect>
		<rect x="10.161" y="36.961" fill="#FFFFFF" width="0.5" height="24.282"></rect>
		<rect x="12.866" y="62.63" fill="#FFFFFF" width="31.303" height="0.5"></rect>
		<rect x="12.866" y="35.893" fill="#FFFFFF" width="31.303" height="0.5"></rect>
	</g>
</g>
</svg>