<svg version="1.1" id="Layer_1" xmlns="http://www.w3.org/2000/svg" xmlns:xlink="http://www.w3.org/1999/xlink" x="0px" y="0px" viewBox="0 0 100 100" xml:space="preserve"><desc>Copyright Opto 22</desc> 
<g>
<g id="shape">
	<path fill="#666666" d="M96.573,10.358c-0.148-0.278-0.498-0.375-0.837-0.468c-0.279-0.077-0.596-0.164-0.674-0.33
		c-0.058-0.123,0.004-0.315,0.066-0.455c0.155-0.351,0.031-0.564-0.057-0.661c-0.538-0.588-2.971,0.063-4.339,0.49
		c-0.208-0.351-0.542-0.604-0.852-0.604c-0.1,0-0.187,0.026-0.259,0.073l-5.253,2.787c-0.489-0.471-1.067-0.769-1.612-0.769
		l-3.101-0.206c-0.434,0-0.813,0.113-1.127,0.316c-0.941,0.612-1.302,2.041-0.803,3.706c0.665,2.22,2.608,4.019,4.34,4.018
		c0.432-0.001,0.811-0.114,1.125-0.318c0.305-0.198,0.549-0.482,0.722-0.832l1.404-2.445c0.239-0.436,0.283-1.057,0.087-1.748
		l0.036-0.019l1.737,2.46l-2.152,1.142c-0.164,0.107-0.26,0.303-0.289,0.542l-5.436,5.886l-26.47-0.936
		C46.441,10.03,35.179,1.319,24.939,1.325c-3.499,0.002-6.507,1.022-8.921,2.841c-0.296,0.138-0.586,0.285-0.868,0.443
		c-0.108,0.06-0.211,0.126-0.317,0.189c-0.22,0.131-0.437,0.265-0.649,0.407c-0.116,0.078-0.23,0.16-0.344,0.242
		c-0.196,0.141-0.388,0.286-0.576,0.437c-0.11,0.088-0.22,0.177-0.328,0.269c-0.193,0.164-0.379,0.336-0.563,0.511
		C12.282,6.75,12.188,6.833,12.1,6.922c-0.257,0.258-0.507,0.525-0.747,0.804c-0.017,0.019-0.033,0.039-0.05,0.058
		c-0.238,0.28-0.465,0.572-0.685,0.872c-0.077,0.105-0.149,0.215-0.223,0.322c-0.148,0.213-0.293,0.429-0.432,0.652
		c-0.08,0.128-0.157,0.259-0.234,0.39c-0.126,0.215-0.249,0.435-0.367,0.658c-0.072,0.136-0.144,0.272-0.213,0.411
		c-0.119,0.24-0.232,0.486-0.342,0.735c-0.056,0.127-0.115,0.252-0.169,0.382c-0.149,0.359-0.29,0.725-0.42,1.1
		c-0.014,0.041-0.029,0.083-0.043,0.124c-0.128,0.376-0.245,0.762-0.354,1.154c-0.01,0.036-0.023,0.07-0.032,0.106l0.007-0.006
		c-1.309,4.812-1.158,10.745,0.768,17.168c0.322,1.073,0.687,2.13,1.088,3.173L9.14,35.11l0.973,2.594l0.62-0.103
		c3.021,6.62,7.552,12.423,12.696,16.583l-0.002,0.001c0.02,0.016,0.041,0.032,0.062,0.048c0.093,0.075,0.186,0.145,0.279,0.219
		c0.257,0.203,0.515,0.405,0.775,0.6c0.125,0.094,0.252,0.184,0.378,0.276c0.036,0.026,0.072,0.053,0.108,0.079v13.959
		L10.292,83.692l-5.439,2.892v0.973l22.284,11.848l22.283-11.848v-0.973l-5.149-2.738L29.406,69.808V58.114
		c0.257,0.132,0.515,0.256,0.773,0.379c0.096,0.046,0.191,0.095,0.287,0.14c0.373,0.173,0.748,0.338,1.123,0.492
		c0.076,0.031,0.152,0.058,0.229,0.089c0.298,0.12,0.596,0.235,0.894,0.343c0.134,0.048,0.268,0.091,0.401,0.137
		c0.243,0.083,0.485,0.164,0.728,0.239c0.149,0.046,0.297,0.087,0.446,0.13c0.229,0.065,0.457,0.128,0.685,0.186
		c0.154,0.039,0.309,0.076,0.463,0.111c0.225,0.052,0.451,0.1,0.676,0.144c0.153,0.03,0.307,0.06,0.46,0.087
		c0.231,0.04,0.461,0.075,0.692,0.107c0.145,0.02,0.29,0.042,0.435,0.06c0.252,0.03,0.503,0.051,0.753,0.071
		c0.122,0.01,0.245,0.023,0.367,0.031c0.372,0.022,0.743,0.035,1.112,0.035c0.3,0,0.593-0.014,0.885-0.029
		c0.413,0.22,0.804,0.449,1.165,0.662c0.883,0.522,1.616,0.956,2.206,0.956c0.139,0,0.27-0.023,0.392-0.076
		c0.845-0.362,1.198-0.892,1.343-1.208l0.263,0.053l1.403-1.202l0.042,0.039l2.53-2.74c2.227-1.355,4.025-3.322,5.328-5.769
		L85.82,18.737c0.088,0.028,0.176,0.063,0.262,0.063c0.129,0,0.242-0.034,0.335-0.095l7.944-4.216
		c0.281-0.182,0.389-0.608,0.24-1.104c-0.025-0.084-0.071-0.157-0.108-0.236c0.753-0.602,1.867-1.579,2.102-2.282
		C96.659,10.677,96.651,10.505,96.573,10.358z M87.875,11.604l0.741-0.393l1.738,2.46l-0.741,0.393L87.875,11.604z M25.028,72.758
		v3.099l-7.035,3.741L25.028,72.758z M29.406,73.152l6.76,6.385l-6.76-3.595V73.152z M56.307,30.369
		c-0.194-0.647-0.408-1.286-0.631-1.922l22.364-4.153L57.265,46.788C58.364,42.116,58.134,36.462,56.307,30.369z M75.554,23.766
		l-20.212,3.753c-0.583-1.552-1.251-3.068-1.993-4.539L75.554,23.766z M44.388,61.961c-0.417,0.181-1.225-0.298-2.159-0.851
		c-0.172-0.102-0.353-0.208-0.537-0.315c0.901-0.094,1.769-0.251,2.593-0.484l-0.531,0.455l1.677,0.335
		C45.294,61.342,45.001,61.699,44.388,61.961z M46.44,59.504c0.122-0.057,0.241-0.12,0.362-0.181l0.35,0.323L46.44,59.504z
		 M96.135,10.713c-0.18,0.537-1.142,1.406-1.9,2.019c-0.264-0.321-0.603-0.546-0.927-0.545c-0.129,0-0.242,0.033-0.336,0.094
		l-2.185,1.16l-1.738-2.46l1.646-0.873c0.19-0.123,0.268-0.394,0.21-0.715c1.753-0.54,3.553-0.896,3.808-0.62
		c0.009,0.009,0.006,0.058-0.029,0.136c-0.152,0.343-0.172,0.625-0.061,0.86c0.174,0.368,0.604,0.486,0.984,0.591
		c0.205,0.057,0.487,0.134,0.537,0.228C96.16,10.618,96.148,10.673,96.135,10.713z"></path>
</g>
<g id="light">
	<path fill="#99A7B0" d="M44.423,83.928l2.663,2.589c0,0,0.042,1.861-3.75-0.253l-7.138-6.709l-0.032-0.017l-6.76-3.595v2.715v9.075
		c0,0-0.493,0.768-1.781,0.865c0,2.316,0,6.055,0,6.652c0,0.875-1.125,0.875-1.125,0c0-0.602,0-4.396,0-6.707
		c-0.944-0.158-1.472-0.521-1.472-0.521v-9.25v-2.915l-7.035,3.741l-0.257,0.137l-6.361,6.298c-3.792,2.115-3.75,0.253-3.75,0.253
		l2.667-2.593l-5.439,2.892l22.284,11.848l22.283-11.848L44.423,83.928z"></path>
</g>
<g id="linear">
	<linearGradient class="linear" id="SVGID_1_vsat" gradientUnits="userSpaceOnUse" x1="7.0341" y1="9.4799" x2="37.2007" y2="60.6466">
		<stop offset="0" style="stop-color:#FFFFFF"></stop>
		<stop offset="1" style="stop-color:#000000"></stop>
	</linearGradient>
	<path class="linear" fill="url(#SVGID_1_vsat)" d="M42.364,59.436C29.851,59.443,15.807,46.44,10.996,30.393C7.529,18.833,9.801,8.849,16.018,4.165
		C8.004,7.915,4.678,18.892,8.564,31.852c4.812,16.047,18.855,29.05,31.368,29.044c3.499-0.002,6.507-1.022,8.921-2.841
		C46.943,58.948,44.771,59.435,42.364,59.436z"></path>
</g>
<g id="radial">
	<radialGradient class="radial" id="SVGID_2_vsat" cx="45.6667" cy="38.3333" r="42.7603" gradientUnits="userSpaceOnUse">
		<stop offset="0" style="stop-color:#CCCCCC"></stop>
		<stop offset="1" style="stop-color:#000000"></stop>
	</radialGradient>
	<path class="radial" fill="url(#SVGID_2_vsat)" d="M56.307,30.369c4.812,16.047-1.431,29.061-13.943,29.068C29.851,59.443,15.807,46.44,10.996,30.393
		C6.184,14.346,12.426,1.331,24.939,1.325C37.451,1.318,51.495,14.322,56.307,30.369z"></path>
</g>
<g id="dark">
	<polygon fill="#666666" points="47.889,59.794 46.186,61.253 43.754,60.766 45.457,59.307 	"></polygon>
	<polygon fill="#666666" points="13.031,37.217 10.113,37.704 9.14,35.11 12.058,34.623 	"></polygon>
</g>
<g id="shadow">
	<g>
		<path d="M85.733,17.834c-0.202-0.187-0.519-0.173-0.706,0.028L46.55,59.526l1.148,0.23l38.063-41.215
			C85.949,18.337,85.937,18.021,85.733,17.834z"></path>
	</g>
	<path d="M83.914,17.107c-0.173,0.35-0.417,0.634-0.722,0.832c-0.314,0.204-0.693,0.317-1.125,0.318l2.156-2.948
		c0.263,0,0.493-0.069,0.684-0.193c0.17-0.11,0.309-0.264,0.412-0.453L83.914,17.107z"></path>
	<path d="M86.168,18.955c-0.179,0-0.352-0.096-0.441-0.266c-0.13-0.244-0.037-0.546,0.207-0.676l7.943-4.216
		c0.241-0.13,0.546-0.038,0.676,0.207c0.13,0.244,0.037,0.546-0.207,0.676l-7.943,4.216C86.328,18.937,86.247,18.955,86.168,18.955z
		"></path>
	<g>
		<path d="M29.183,69.597V57.999c-0.335-0.175-0.668-0.359-1-0.548v11.203L29.183,69.597z"></path>
		<polygon points="28.183,71.997 28.183,88.376 29.183,87.876 29.183,72.942 		"></polygon>
	</g>
	<polygon points="12.738,36.434 79.173,24.097 78.991,23.113 12.381,35.483 	"></polygon>
	<polygon points="27.136,99.405 49.419,87.557 49.419,86.584 27.136,98.432 	"></polygon>
</g>
<g id="hlight">
	<path fill="#FFFFFF" d="M46.916,59.192c-0.061,0-0.122-0.021-0.169-0.066c-0.102-0.094-0.108-0.252-0.014-0.354l38.111-41.268
		c0.093-0.102,0.251-0.107,0.354-0.014c0.102,0.094,0.107,0.252,0.014,0.353L47.1,59.112C47.05,59.165,46.983,59.192,46.916,59.192z
		"></path>
	<path fill="#FFFFFF" d="M85.027,17.233c-0.089,0-0.176-0.048-0.221-0.133c-0.064-0.122-0.019-0.273,0.104-0.338l7.944-4.215
		c0.12-0.065,0.273-0.019,0.338,0.104s0.019,0.273-0.104,0.338l-7.944,4.215C85.107,17.224,85.067,17.233,85.027,17.233z"></path>
	<path fill="#FFFFFF" d="M83.491,12.394c-0.089,0-0.176-0.048-0.221-0.133c-0.064-0.122-0.019-0.273,0.104-0.338l6.131-3.253
		c0.12-0.064,0.272-0.02,0.338,0.104c0.064,0.122,0.019,0.273-0.104,0.338l-6.131,3.253C83.571,12.384,83.531,12.394,83.491,12.394z
		"></path>
	<path fill="#FFFFFF" d="M10.263,30.462C7.141,20.051,8.497,10.629,13.888,5.258l0.344,0.345c-5.184,5.164-6.526,14.637-3.503,24.72
		L10.263,30.462z"></path>
	<path fill="#FFFFFF" d="M13,35.947c-0.118,0-0.223-0.084-0.245-0.205c-0.025-0.136,0.064-0.266,0.2-0.291L78.972,23.19
		c0.14-0.029,0.267,0.064,0.292,0.2s-0.064,0.266-0.2,0.291L13.045,35.942C13.03,35.945,13.015,35.947,13,35.947z"></path>
	<path fill="#FFFFFF" d="M78.53,10.533c-0.941,0.612-1.301,2.041-0.803,3.706l3.858-1.372c-0.304-1.012-0.085-1.881,0.488-2.252
		L78.53,10.533z"></path>
	<path fill="#FFFFFF" d="M25.515,88.126c-0.138,0-0.25-0.112-0.25-0.25V73c0-0.138,0.112-0.25,0.25-0.25s0.25,0.112,0.25,0.25
		v14.876C25.765,88.014,25.653,88.126,25.515,88.126z"></path>
	<path fill="#FFFFFF" d="M7.991,86.916c-0.065,0-0.13-0.025-0.179-0.076c-0.096-0.099-0.094-0.257,0.005-0.354l17.434-16.949v-8.37
		c0-0.138,0.112-0.25,0.25-0.25s0.25,0.112,0.25,0.25v8.581l-0.076,0.074L8.166,86.846C8.117,86.893,8.054,86.916,7.991,86.916z"></path>
	<path fill="#FFFFFF" d="M45.707,86.43c-0.062,0-0.124-0.022-0.172-0.068l-17.51-16.537c-0.1-0.095-0.104-0.253-0.01-0.354
		c0.094-0.1,0.253-0.105,0.354-0.01l17.51,16.537c0.1,0.095,0.104,0.253,0.01,0.354C45.839,86.403,45.773,86.43,45.707,86.43z"></path>
	<path fill="#FFFFFF" d="M26.488,95.186c-0.116,0.003-0.251-0.113-0.25-0.252l0.236-25.293c0.001-0.139,0.139-0.26,0.252-0.248
		c0.138,0.001,0.249,0.114,0.248,0.252l-0.236,25.293C26.736,95.075,26.625,95.186,26.488,95.186z"></path>
</g>
</g>
</svg>